<svg width="32" height="32" viewBox="0 0 32 32" fill="none" xmlns="http://www.w3.org/2000/svg">
<g clip-path="url(#clip0_2015_456)">
<path fill-rule="evenodd" clip-rule="evenodd" d="M15.4354 0.941162C6.91174 0.941162 0 7.85378 0 16.3812C0 23.2031 4.42269 28.9907 10.5557 31.0323C11.327 31.1752 11.6103 30.6973 11.6103 30.2895C11.6103 29.9214 11.5959 28.705 11.5894 27.4149C7.29513 28.3489 6.38902 25.5931 6.38902 25.5931C5.68689 23.8085 4.67522 23.334 4.67522 23.334C3.27483 22.3757 4.78078 22.3953 4.78078 22.3953C6.33079 22.5043 7.14695 23.9865 7.14695 23.9865C8.52361 26.3469 10.7578 25.6645 11.6386 25.2701C11.7771 24.272 12.1772 23.591 12.6186 23.2054C9.19027 22.8149 5.58617 21.491 5.58617 15.5748C5.58617 13.8892 6.18915 12.5118 7.17661 11.4305C7.01633 11.0416 6.48804 9.47123 7.32612 7.34446C7.32612 7.34446 8.62227 6.92948 11.5719 8.92716C12.8031 8.58495 14.1236 8.41348 15.4354 8.40767C16.7471 8.41348 18.0686 8.58495 19.3022 8.92716C22.2483 6.92948 23.5427 7.34446 23.5427 7.34446C24.3828 9.47123 23.8543 11.0416 23.694 11.4305C24.6836 12.5118 25.2825 13.8891 25.2825 15.5748C25.2825 21.505 21.6716 22.8109 18.2346 23.1931C18.7881 23.6722 19.2815 24.6119 19.2815 26.0523C19.2815 28.1182 19.2635 29.7809 19.2635 30.2895C19.2635 30.7004 19.5414 31.1818 20.3239 31.0302C26.4535 28.9863 30.8706 23.2008 30.8706 16.3812C30.8706 7.85378 23.9598 0.941162 15.4354 0.941162Z" fill="white"/>
<path d="M5.78837 22.9316C5.75472 23.0085 5.63477 23.0316 5.52576 22.9789C5.41459 22.9283 5.3521 22.8234 5.38815 22.7461C5.4212 22.6669 5.54115 22.6448 5.65208 22.698C5.76349 22.7484 5.82695 22.8544 5.78837 22.9316ZM6.54217 23.6115C6.4691 23.68 6.3262 23.6482 6.22921 23.5399C6.12898 23.4319 6.11023 23.2876 6.18438 23.218C6.25974 23.1496 6.39831 23.1815 6.49879 23.2896C6.59902 23.3989 6.61861 23.5422 6.54217 23.6115ZM7.05933 24.4813C6.96535 24.5473 6.81175 24.4855 6.71692 24.3477C6.62306 24.21 6.62306 24.0448 6.71897 23.9786C6.81415 23.9124 6.96535 23.9719 7.0615 24.1086C7.15524 24.2487 7.15536 24.4138 7.05933 24.4813ZM7.9338 25.4888C7.84979 25.5824 7.67096 25.5573 7.53996 25.4295C7.40607 25.3046 7.36869 25.1274 7.45294 25.0337C7.53791 24.9399 7.71783 24.9663 7.84979 25.093C7.98284 25.2177 8.02334 25.3962 7.9338 25.4888ZM9.06403 25.829C9.02713 25.9502 8.85479 26.0054 8.68124 25.9539C8.50793 25.9008 8.39448 25.7586 8.42945 25.6361C8.46551 25.514 8.63857 25.4565 8.81344 25.5117C8.98651 25.5645 9.10009 25.7056 9.06403 25.829ZM10.3505 25.9732C10.3548 26.101 10.2076 26.2069 10.0254 26.2092C9.84211 26.2133 9.69392 26.1099 9.692 25.9842C9.692 25.8552 9.83586 25.7503 10.019 25.7472C10.2012 25.7436 10.3505 25.8462 10.3505 25.9732ZM11.6141 25.9242C11.636 26.0489 11.5093 26.1769 11.3284 26.2109C11.1506 26.2437 10.9859 26.1668 10.9632 26.0433C10.9411 25.9155 11.0702 25.7876 11.2477 25.7544C11.4289 25.7226 11.5911 25.7975 11.6141 25.9242Z" fill="white"/>
</g>
<defs>
<clipPath id="clip0_2015_456">
<rect width="32" height="30.1176" fill="white" transform="translate(0 0.941162)"/>
</clipPath>
</defs>
</svg>
