<svg width="519" height="977" viewBox="0 0 519 977" fill="none" xmlns="http://www.w3.org/2000/svg">
<g opacity="0.2">
<path d="M647.961 675.374L634.456 690.564C622.758 701.382 609.889 709.787 595.85 715.78C569.224 727.16 541.766 729.552 513.476 722.953C512.085 722.677 510.751 722.335 509.474 721.927C493.942 717.541 479.672 710.755 466.664 701.571C462.08 698.527 456.569 693.864 450.131 687.583C449.582 686.873 449.107 686.345 448.708 685.999C433.163 669.257 422.466 650.547 416.618 629.869C408.71 601.349 410.247 573.218 421.231 545.476C424.092 538.408 427.534 531.609 431.556 525.082C435.02 519.469 439.229 513.802 444.183 508.083C449.136 502.363 454.143 497.388 459.204 493.159C483.087 473.111 510.605 462.851 541.755 462.382C557.33 462.147 572.347 464.573 586.808 469.659C598.563 473.566 609.899 479.437 620.814 487.272C625.397 490.316 630.908 494.979 637.347 501.261C637.896 501.97 638.371 502.499 638.77 502.845C654.315 519.587 665.078 538.355 671.06 559.148C678.95 587.419 677.461 615.359 666.593 642.969C662.474 653.372 657.176 662.985 650.699 671.809C650.025 672.855 649.113 674.044 647.961 675.374ZM617.257 672.504L628.343 660.107C629.495 658.777 630.408 657.588 631.081 656.542C639.808 644.313 645.699 630.788 648.753 615.967C649.965 610.264 650.61 605.35 650.689 601.226L650.728 599.163L603.817 602.503L557.106 606.014L560.273 652.783L563.639 699.723L565.674 699.392C568.997 698.781 573.708 697.509 579.807 695.577C594.016 690.197 606.499 682.507 617.257 672.504ZM551.778 534.312L555.317 581.053L602.227 577.715L648.965 574.575L648.353 571.249C647.421 566.946 646.182 562.728 644.639 558.594C639.67 544.969 632.166 532.522 622.128 521.254C617.135 515.993 611.416 511.032 604.97 506.374C587.928 494.856 569.763 488.535 550.472 487.411L548.412 487.371L551.778 534.312ZM532.111 701.032C533.734 701.041 535.366 701.175 537.005 701.433L539.067 701.472L535.701 654.531L532.162 607.79L485.423 610.929L438.512 614.268L438.846 616.304C442.699 635.252 451.534 652.347 465.35 667.59C470.343 672.851 476.062 677.811 482.508 682.469C498.105 692.968 514.639 699.155 532.111 701.032ZM483.461 586.168L530.371 582.829L527.005 535.888L523.839 489.12L520.515 489.731C503.567 493.433 488.508 500.871 475.339 512.043C471.218 515.458 467.084 519.558 462.937 524.347C458.79 529.135 455.263 533.88 452.357 538.58C445.969 548.645 441.368 560.145 438.553 573.076C437.509 579.391 436.92 584.238 436.789 587.618L436.749 589.68L483.461 586.168ZM524.5 817.527C523.092 820.498 520.868 822.529 517.827 823.619C515.532 824.656 513.174 824.824 510.754 824.122C508.847 823.634 505.101 820.967 499.514 816.123C493.813 811.412 475.534 795.675 444.676 768.914C403.044 732.809 381.639 714.362 380.46 713.573C367.949 704.352 353.684 700.25 337.666 701.266C321.532 702.414 307.417 708.224 295.321 718.696C289.915 723.325 285.307 728.645 281.497 734.658C272.858 748.13 269.118 762.936 270.275 779.08C271.549 795.091 277.634 808.638 288.532 819.719C289.481 820.775 310.771 839.356 352.402 875.46C394.034 911.565 415.217 930.401 415.953 931.972C415.67 931.493 415.82 931.856 416.407 933.063C416.823 933.657 417.093 934.824 417.219 936.563C417.646 942.524 415.01 946.642 409.311 948.92C407.015 949.957 404.657 950.125 402.237 949.424C400.331 948.936 396.518 946.211 390.798 941.251C385.097 936.54 366.685 920.688 335.561 893.696C293.397 857.13 271.842 838.32 270.893 837.264L266.197 831.793C251.059 813.774 244.115 792.613 245.366 768.309C246.035 753.283 250.135 739.136 257.665 725.87C260.899 720.522 264.763 715.254 269.255 710.067C273.748 704.879 278.352 700.37 283.067 696.54C294.89 687.46 307.746 681.49 321.636 678.629C347.049 672.951 370.426 677.154 391.768 691.237C392.948 692.027 394.127 692.816 395.306 693.606C396.486 694.396 418.157 713.073 460.32 749.639C502.35 786.09 523.734 805.1 524.47 806.671C524.319 806.307 524.47 806.671 524.923 807.761C526.396 810.902 526.254 814.157 524.5 817.527ZM410.416 828.644L408.541 831.21L408.368 831.41C406.853 832.89 405.608 833.791 404.633 834.11C400.635 835.767 397.01 835.65 393.756 833.761C392.993 833.565 389.686 830.93 383.834 825.855L375.454 818.587L367.678 827.566L359.729 836.744L357.722 837.449C352.404 839.825 347.732 839.034 343.707 835.077C340.061 831.217 339.121 826.791 340.883 821.797L341.521 820.254L349.097 811.102L356.7 802.323L347.722 794.537C342.003 789.577 338.85 786.494 338.265 785.287C335.542 780.364 336.081 775.707 339.882 771.317C343.684 766.928 348.214 765.732 353.471 767.729C354.748 768.137 358.246 770.821 363.965 775.782L372.943 783.568L380.546 774.789L388.349 766.182L389.957 765.132C394.646 762.677 399.158 762.979 403.494 766.041C407.981 769.466 409.427 773.981 407.833 779.586L407.249 781.875L399.473 790.854L391.697 799.832L400.076 807.099C406.594 812.751 410.239 816.611 411.011 818.678C412.137 822.217 411.939 825.539 410.416 828.644Z" fill="white"/>
<path d="M517.849 548.299L493.825 544.74C468.553 538.612 445.978 528.322 426.103 513.87C408.152 500.927 393.135 485.364 381.048 467.183C366.68 446.201 357.185 422.688 352.564 396.645C345.938 360.553 349.895 325.646 364.437 291.922C365.49 289.401 366.631 286.891 367.859 284.394C376.354 266.367 387.623 250.143 401.665 235.719C425.691 210.581 454.823 193.604 489.057 184.791C507.221 180.527 525.487 178.766 543.857 179.505C552.495 179.978 562.085 181.293 572.624 183.448C573.147 183.519 573.67 183.591 574.193 183.663C599.466 189.792 622.127 200.093 642.178 214.568C660.128 227.512 675.146 243.074 687.231 261.256C701.576 282.413 711.059 306.013 715.68 332.056C722.33 367.973 718.373 402.881 703.809 436.779C702.754 439.3 701.613 441.809 700.385 444.306C688.967 468.152 673.53 488.248 654.075 504.596C643.829 513.32 633.82 520.3 624.049 525.536C600.94 538.717 576.017 546.319 549.279 548.341C539.207 549.27 528.73 549.257 517.849 548.299ZM536.782 450.408L527.263 520.27L528.571 520.449C529.093 520.521 530.425 520.525 532.565 520.463C560.262 520.527 586.013 514.016 609.819 500.93C639.822 484.073 661.939 459.917 676.171 428.46C677.692 425.116 679.126 421.759 680.473 418.389C683.532 410.278 685.335 404.217 685.882 400.206L685.988 399.42L616.163 389.852L546.337 380.284L536.782 450.408ZM490.496 514.431C494.284 515.306 496.427 515.867 496.926 516.113L499.019 516.4L508.538 446.538L518.093 376.414L448.267 366.846L378.441 357.277L378.335 358.062C378.002 360.504 377.979 364.588 378.263 370.313C378.78 384.778 381.486 399.453 386.384 414.34C397.163 446.025 416.128 471.723 443.278 491.436C457.679 501.761 473.417 509.427 490.496 514.431ZM559.742 281.902L550.187 352.026L620.013 361.594L689.839 371.161L689.946 370.377C690.279 367.935 690.302 363.851 690.017 358.125C689.524 343.487 686.806 328.899 681.861 314.362C671.105 282.502 652.153 256.716 625.001 237.003C610.601 226.679 594.863 219.013 577.784 214.007C573.822 213.109 571.678 212.548 571.353 212.327L569.261 212.04L559.742 281.902ZM382.399 328.234L382.292 329.019L452.118 338.586L521.943 348.155L531.498 278.031L541.017 208.17L538.925 207.883C526.555 207.432 513.772 208.701 500.577 211.69C466.707 219.132 438.483 235.966 415.906 262.192C403.679 276.331 394.312 292.284 387.807 310.05C384.748 318.16 382.946 324.222 382.399 328.234ZM181.128 515.485L153.371 511.948C150.232 511.518 148.588 511.204 148.438 511.006C147.637 510.363 147.387 508.285 147.688 504.773C147.95 502.854 148.521 498.667 149.4 492.213C155.603 450.595 163.091 411.284 171.862 374.282C204.634 238.039 260.64 133.322 339.877 60.1314C341.311 58.7282 342.82 57.425 344.406 56.2202C345.547 55.666 348.86 56.1202 354.343 57.5822C355.642 58.4711 355.861 59.4782 354.997 60.6041C354.974 60.7786 352.961 63.1684 348.959 67.7728C328.181 91.2245 309.618 116.667 293.27 144.102C251.018 214.364 219.444 304.66 198.551 414.988C197.346 421.22 196.218 427.551 195.163 433.982C191.194 455.294 187.486 478.597 184.039 503.89C183.041 511.216 182.071 515.081 181.128 515.485Z" fill="white"/>
</g>
</svg>
