<svg width="736" height="1013" viewBox="0 0 736 1013" fill="none" xmlns="http://www.w3.org/2000/svg">
<path d="M591.961 711.374L578.456 726.564C566.758 737.382 553.889 745.787 539.85 751.78C513.224 763.16 485.766 765.552 457.476 758.953C456.085 758.677 454.751 758.335 453.474 757.927C437.942 753.541 423.672 746.755 410.664 737.571C406.08 734.527 400.569 729.864 394.131 723.583C393.582 722.873 393.107 722.345 392.708 721.999C377.163 705.257 366.466 686.547 360.618 665.869C352.71 637.349 354.247 609.218 365.231 581.476C368.092 574.408 371.534 567.609 375.556 561.082C379.02 555.469 383.229 549.802 388.183 544.083C393.136 538.363 398.143 533.388 403.204 529.159C427.087 509.111 454.605 498.851 485.755 498.382C501.33 498.147 516.347 500.573 530.808 505.659C542.563 509.566 553.899 515.437 564.814 523.272C569.397 526.316 574.908 530.979 581.347 537.261C581.896 537.97 582.371 538.499 582.77 538.845C598.315 555.587 609.078 574.355 615.06 595.148C622.95 623.419 621.461 651.359 610.593 678.969C606.474 689.372 601.176 698.985 594.699 707.809C594.025 708.855 593.113 710.044 591.961 711.374ZM561.257 708.504L572.343 696.107C573.495 694.777 574.408 693.588 575.081 692.542C583.808 680.313 589.699 666.788 592.753 651.967C593.965 646.264 594.61 641.35 594.689 637.226L594.728 635.163L547.817 638.503L501.106 642.014L504.273 688.783L507.639 735.723L509.674 735.392C512.997 734.781 517.708 733.509 523.807 731.577C538.016 726.197 550.499 718.507 561.257 708.504ZM495.778 570.312L499.317 617.053L546.227 613.715L592.965 610.575L592.353 607.249C591.421 602.946 590.182 598.728 588.639 594.594C583.67 580.969 576.166 568.522 566.128 557.254C561.135 551.993 555.416 547.032 548.97 542.374C531.928 530.856 513.763 524.535 494.472 523.411L492.412 523.371L495.778 570.312ZM476.111 737.032C477.734 737.041 479.366 737.175 481.005 737.433L483.067 737.472L479.701 690.531L476.162 643.79L429.423 646.929L382.512 650.268L382.846 652.304C386.699 671.252 395.534 688.347 409.35 703.59C414.343 708.851 420.062 713.811 426.508 718.469C442.105 728.968 458.639 735.155 476.111 737.032ZM427.461 622.168L474.371 618.829L471.005 571.888L467.839 525.12L464.515 525.731C447.567 529.433 432.508 536.871 419.339 548.043C415.218 551.458 411.084 555.558 406.937 560.347C402.79 565.135 399.263 569.88 396.357 574.58C389.969 584.645 385.368 596.145 382.553 609.076C381.509 615.391 380.92 620.238 380.789 623.618L380.749 625.68L427.461 622.168ZM468.5 853.527C467.092 856.498 464.868 858.529 461.827 859.619C459.532 860.656 457.174 860.824 454.754 860.122C452.847 859.634 449.101 856.967 443.514 852.123C437.813 847.412 419.534 831.675 388.676 804.914C347.044 768.809 325.639 750.362 324.46 749.573C311.949 740.352 297.684 736.25 281.666 737.266C265.532 738.414 251.417 744.224 239.321 754.696C233.915 759.325 229.307 764.645 225.497 770.658C216.858 784.13 213.118 798.936 214.275 815.08C215.549 831.091 221.634 844.638 232.532 855.719C233.481 856.775 254.771 875.356 296.402 911.46C338.034 947.565 359.217 966.401 359.953 967.972C359.67 967.493 359.82 967.856 360.407 969.063C360.823 969.657 361.093 970.824 361.219 972.563C361.646 978.524 359.01 982.642 353.311 984.92C351.015 985.957 348.657 986.125 346.237 985.424C344.331 984.936 340.518 982.211 334.798 977.251C329.097 972.54 310.685 956.688 279.561 929.696C237.397 893.13 215.842 874.32 214.893 873.264L210.197 867.793C195.059 849.774 188.115 828.613 189.366 804.309C190.035 789.283 194.135 775.136 201.665 761.87C204.899 756.522 208.763 751.254 213.255 746.067C217.748 740.879 222.352 736.37 227.067 732.54C238.89 723.46 251.746 717.49 265.636 714.629C291.049 708.951 314.426 713.154 335.768 727.237C336.948 728.027 338.127 728.816 339.306 729.606C340.486 730.396 362.157 749.073 404.32 785.639C446.35 822.09 467.734 841.1 468.47 842.671C468.319 842.307 468.47 842.671 468.923 843.761C470.396 846.902 470.254 850.157 468.5 853.527ZM354.416 864.644L352.541 867.21L352.368 867.41C350.853 868.89 349.608 869.791 348.633 870.11C344.635 871.767 341.01 871.65 337.756 869.761C336.993 869.565 333.686 866.93 327.834 861.855L319.454 854.587L311.678 863.566L303.729 872.744L301.722 873.449C296.404 875.825 291.732 875.034 287.707 871.077C284.061 867.217 283.121 862.791 284.883 857.797L285.521 856.254L293.097 847.102L300.7 838.323L291.722 830.537C286.003 825.577 282.85 822.494 282.265 821.287C279.542 816.364 280.081 811.707 283.882 807.317C287.684 802.928 292.214 801.732 297.471 803.729C298.748 804.137 302.246 806.821 307.965 811.782L316.943 819.568L324.546 810.789L332.349 802.182L333.957 801.132C338.646 798.677 343.158 798.979 347.494 802.041C351.981 805.466 353.427 809.981 351.833 815.586L351.249 817.875L343.473 826.854L335.697 835.832L344.076 843.099C350.594 848.751 354.239 852.611 355.011 854.678C356.137 858.217 355.939 861.539 354.416 864.644Z" fill="white"/>
<path d="M461.849 584.299L437.824 580.74C412.553 574.612 389.978 564.322 370.102 549.87C352.152 536.927 337.134 521.364 325.048 503.183C310.68 482.201 301.185 458.688 296.564 432.645C289.938 396.553 293.894 361.646 308.436 327.922C309.489 325.401 310.63 322.891 311.859 320.394C320.354 302.367 331.623 286.143 345.665 271.719C369.691 246.581 398.823 229.604 433.057 220.791C451.221 216.527 469.487 214.766 487.857 215.505C496.495 215.978 506.085 217.293 516.624 219.448C517.147 219.519 517.67 219.591 518.193 219.663C543.466 225.792 566.127 236.093 586.177 250.568C604.128 263.512 619.145 279.074 631.231 297.256C645.576 318.413 655.058 342.013 659.68 368.056C666.33 403.973 662.373 438.881 647.808 472.779C646.754 475.3 645.613 477.809 644.385 480.306C632.966 504.152 617.53 524.248 598.075 540.596C587.828 549.32 577.82 556.3 568.049 561.536C544.94 574.717 520.017 582.319 493.279 584.341C483.206 585.27 472.729 585.257 461.849 584.299ZM480.782 486.408L471.263 556.27L472.571 556.449C473.093 556.521 474.424 556.525 476.564 556.463C504.261 556.527 530.013 550.016 553.818 536.93C583.822 520.073 605.939 495.917 620.17 464.46C621.692 461.116 623.126 457.759 624.473 454.389C627.532 446.278 629.335 440.217 629.881 436.206L629.988 435.42L560.162 425.852L490.337 416.284L480.782 486.408ZM434.495 550.431C438.283 551.306 440.427 551.867 440.926 552.113L443.018 552.4L452.538 482.538L462.093 412.414L392.267 402.846L322.441 393.277L322.334 394.062C322.001 396.504 321.978 400.588 322.263 406.313C322.779 420.778 325.486 435.453 330.384 450.34C341.162 482.025 360.128 507.723 387.278 527.436C401.678 537.761 417.417 545.427 434.495 550.431ZM503.742 317.902L494.187 388.026L564.013 397.594L633.839 407.161L633.946 406.377C634.279 403.935 634.302 399.851 634.017 394.125C633.524 379.487 630.806 364.899 625.86 350.362C615.105 318.502 596.152 292.716 569.001 273.003C554.601 262.679 538.862 255.013 521.784 250.007C517.822 249.109 515.678 248.548 515.353 248.327L513.261 248.04L503.742 317.902ZM326.399 364.234L326.292 365.019L396.117 374.586L465.943 384.155L475.498 314.031L485.017 244.17L482.925 243.883C470.555 243.432 457.771 244.701 444.577 247.69C410.707 255.132 382.483 271.966 359.906 298.192C347.679 312.331 338.312 328.284 331.806 346.05C328.748 354.16 326.946 360.222 326.399 364.234ZM125.128 551.485L97.3707 547.948C94.2323 547.518 92.5878 547.204 92.4374 547.006C91.6366 546.363 91.3869 544.285 91.6876 540.773C91.9494 538.854 92.5203 534.667 93.3996 528.213C99.6032 486.595 107.091 447.284 115.862 410.282C148.634 274.039 204.639 169.322 283.876 96.1314C285.311 94.7282 286.82 93.425 288.405 92.2202C289.547 91.666 292.859 92.1202 298.343 93.5822C299.642 94.4711 299.86 95.4782 298.997 96.6041C298.973 96.7786 296.96 99.1684 292.959 103.773C272.181 127.225 253.618 152.667 237.27 180.102C195.017 250.364 163.444 340.66 142.551 450.988C141.346 457.22 140.217 463.551 139.163 469.982C135.194 491.294 131.486 514.597 128.039 539.89C127.041 547.216 126.071 551.081 125.128 551.485Z" fill="white"/>
</svg>
