<svg width="206" height="146" viewBox="0 0 206 146" fill="none" xmlns="http://www.w3.org/2000/svg">
<path d="M97.096 34.8886C94.1949 34.9485 92.5944 36.4073 90.5714 37.6356C90.2851 37.8068 90.0276 38.0224 89.8496 38.2966C89.6716 38.5708 89.6608 38.6366 89.6275 38.9576C89.5942 39.2787 89.7314 39.6469 89.8496 39.9492C89.9678 40.2514 89.965 40.3886 90.2105 40.6102C93.6292 43.7258 99.6051 48.1899 97.2058 53.3426C94.8065 58.4953 98.3035 58.3156 98.3663 61.9854C98.5231 73.4592 100.107 84.7334 103.118 95.8077C104.498 100.871 104.419 106.263 105.721 111.566C105.733 111.619 105.732 111.673 105.718 111.726C105.705 111.779 105.679 111.828 105.643 111.87C105.607 111.912 105.561 111.945 105.509 111.967C105.458 111.99 105.401 112.001 105.345 112H104.859C104.723 112 104.644 111.935 104.623 111.805C103.62 104.835 100.66 97.9784 98.8722 91.178C96.0965 80.6328 95.6241 74.6525 97.6606 64.6067C97.7651 62.6395 96.6273 61.1558 94.9023 59.1186C94.5583 58.7223 93.8095 57.6573 93.8196 57.1356C93.8823 52.8816 99.0876 50.212 94.5085 46.2426C92.4804 44.4851 90.4164 42.7825 88.6287 40.7753C88.4644 40.5947 88.1025 40.209 88.0451 39.9792C87.9877 39.7494 87.9823 39.183 88.0451 38.9576C89.1899 34.6737 95.0574 34.3644 98.821 34.0198C99.6156 33.9499 99.647 34.0648 98.9151 34.3644L98.3036 34.634C97.9167 34.7937 97.5142 34.8786 97.096 34.8886Z" fill="#665049"/>
<path d="M102.857 45.2467L103.317 45.804C103.393 45.884 103.437 45.9943 103.44 46.1104C103.443 46.2265 103.404 46.3391 103.331 46.4232C103.259 46.5074 103.16 46.5563 103.055 46.5592C102.951 46.5621 102.849 46.5188 102.773 46.4387C99.314 43.2651 100.36 36.8715 104.266 34.7506C104.433 34.6577 104.601 34.6371 104.768 34.6887C105.056 34.7713 105.084 34.9209 104.852 35.1376C102.239 37.4288 101.383 40.4166 102.285 44.1011C102.397 44.5346 102.587 44.9164 102.857 45.2467Z" fill="#665049"/>
<path d="M107.302 45.2852C109.882 42.7893 113.181 37.4797 108.162 35.0291C107.787 34.8476 107.808 34.7316 108.225 34.6812C108.683 34.6409 108.996 34.661 109.163 34.7417C115.433 37.7671 110.57 42.6834 107.849 45.7542C107.693 45.9357 107.521 45.9458 107.333 45.7844H107.318C107.13 45.6231 107.125 45.4567 107.302 45.2852Z" fill="#665049"/>
<path d="M111.466 49.6985C108.285 52.3345 106.909 56.3382 105.729 61.262C105.677 61.4509 104.745 61.3017 104.545 61.262C104.345 61.2222 104.261 61.1078 104.292 60.9188C105.293 55.627 107.705 51.2204 111.529 47.6992C111.832 47.417 112.234 47.2482 112.661 47.2235C113.087 47.1988 113.51 47.32 113.852 47.5649C116.965 49.7731 110.676 61.8289 117.929 66.0067C117.967 66.0419 117.991 66.0881 117.998 66.1379C118.005 66.1877 117.993 66.2382 117.966 66.2812C117.939 66.3242 117.897 66.3573 117.847 66.3752C117.798 66.3931 117.743 66.3946 117.692 66.3797C112.715 63.6194 111.794 55.6305 112.947 50.856C113.527 48.409 113.457 48.0374 111.466 49.6985Z" fill="#665049"/>
<path d="M108.569 97.8441C110.453 89.7232 118.274 71.0998 106.163 66.2776C105.064 65.8437 104.442 65.1337 104.296 64.1475C104.24 63.7629 104.408 63.6545 104.801 63.8221C105.092 63.9503 105.317 64.1574 105.474 64.4434C105.642 64.7589 105.911 64.9857 106.281 65.1238C112.123 67.3032 114.809 71.2182 114.338 76.8688C113.856 82.8054 112.095 89.8366 109.056 97.9624C109 98.0906 108.899 98.1399 108.754 98.1103H108.737C108.591 98.0709 108.535 97.9821 108.569 97.8441Z" fill="#665049"/>
</svg>
