<svg width="141" height="141" viewBox="0 0 141 141" fill="none" xmlns="http://www.w3.org/2000/svg">
<path d="M67.1324 39.3602L69.1362 39.2014C70.7126 39.2307 72.2087 39.5125 73.6246 40.0467C76.3109 41.0586 78.4448 42.7688 80.0261 45.1776C80.1072 45.2926 80.1798 45.4084 80.2437 45.525C81.0599 46.902 81.6222 48.3637 81.9306 49.9101C82.0523 50.4413 82.1304 51.1515 82.1648 52.0408C82.156 52.1291 82.1541 52.1993 82.1591 52.2514C82.135 54.5109 81.6288 56.5787 80.6405 58.4549C79.2661 61.0316 77.2402 62.9337 74.5626 64.1609C73.8759 64.4693 73.166 64.7186 72.4327 64.9088C71.8018 65.072 71.1139 65.1881 70.3688 65.2569C69.6237 65.3257 68.9255 65.3378 68.2742 65.2928C65.1946 65.0873 62.5207 63.9344 60.2526 61.834C59.1185 60.7838 58.2058 59.582 57.5141 58.2285C56.9363 57.1445 56.5223 55.949 56.2723 54.6421C56.1506 54.111 56.0725 53.4007 56.0381 52.5114C56.047 52.4232 56.0489 52.353 56.0438 52.3009C56.0679 50.0414 56.5733 47.9648 57.5599 46.0713C58.9186 43.5135 60.928 41.6218 63.5883 40.3961C64.5924 39.936 65.6273 39.6129 66.6931 39.427C66.8127 39.3984 66.9591 39.3762 67.1324 39.3602ZM69.141 41.6682L67.5011 41.7934C67.3278 41.8094 67.1813 41.8317 67.0618 41.8603C65.6026 42.135 64.2587 42.6966 63.0302 43.545C62.5549 43.8688 62.1739 44.1753 61.8874 44.4643L61.7442 44.6087L65.339 47.584L68.9313 50.5332L71.8887 46.979L74.8435 43.3989L74.6748 43.2832C74.3946 43.0991 73.9699 42.8671 73.4005 42.5872C72.0142 41.9978 70.5944 41.6914 69.141 41.6682ZM64.4312 56.0147L67.36 52.4369L63.7653 49.4617L60.1964 46.484L60.0138 46.7633C59.7878 47.1342 59.5895 47.5201 59.4188 47.9208C58.8476 49.2334 58.5387 50.6356 58.492 52.1273C58.4921 52.8448 58.5649 53.5905 58.7104 54.3645C59.1494 56.3538 60.023 58.0492 61.3312 59.4509L61.4764 59.5948L64.4312 56.0147ZM77.1957 45.4653C77.0798 45.3535 76.9719 45.2321 76.8717 45.1014L76.7265 44.9574L73.7716 48.5375L70.8428 52.1153L74.4117 55.093L78.0065 58.0682L78.1212 57.9001C79.1349 56.2841 79.6648 54.459 79.7109 52.4249C79.7108 51.7075 79.638 50.9617 79.4925 50.1878C79.0878 48.3702 78.3222 46.7961 77.1957 45.4653ZM72.8664 56.9943L69.2717 54.0191L66.3168 57.5993L63.3594 61.1533L63.6396 61.3375C65.1083 62.2343 66.6958 62.7351 68.4019 62.84C68.9302 62.8787 69.5063 62.8692 70.13 62.8116C70.7538 62.754 71.33 62.657 71.8587 62.5208C73.0027 62.2401 74.116 61.7348 75.1986 61.0049C75.7036 60.6257 76.0759 60.3202 76.3155 60.088L76.4587 59.9435L72.8664 56.9943ZM85.6749 37.6738C85.9783 37.5584 86.2763 37.5658 86.5687 37.6963C86.8041 37.7796 86.9848 37.9291 87.1107 38.145C87.2144 38.3104 87.3017 38.7573 87.3728 39.4857C87.4613 40.2124 87.7019 42.5875 88.0946 46.611C88.6246 52.0392 88.905 54.8218 88.9359 54.9589C89.2061 56.4739 89.9508 57.7438 91.1698 58.7686C92.4061 59.7919 93.815 60.3442 95.3965 60.4256C96.0997 60.4656 96.7928 60.4016 97.4757 60.2336C99.0132 59.8641 100.29 59.0637 101.306 57.8325C102.305 56.6027 102.791 55.2192 102.763 53.6819C102.767 53.5416 102.504 50.7573 101.974 45.3292C101.444 39.901 101.206 37.1057 101.26 36.9432C101.248 36.9968 101.262 36.9605 101.302 36.8343C101.312 36.7633 101.372 36.6616 101.482 36.5289C101.857 36.0743 102.327 35.961 102.891 36.1889C103.126 36.2721 103.307 36.4216 103.433 36.6375C103.537 36.8029 103.625 37.2585 103.698 38.0042C103.786 38.731 104.028 41.1234 104.424 45.1816C104.961 50.6791 105.228 53.498 105.224 53.6383L105.188 54.3504C105.048 56.6732 104.106 58.6588 102.361 60.3074C101.29 61.3338 100.032 62.0624 98.588 62.4932C97.9917 62.6532 97.3556 62.7645 96.6799 62.8269C96.0042 62.8893 95.3666 62.8957 94.7673 62.846C93.3004 62.684 91.971 62.2293 90.779 61.482C88.5681 60.1463 87.1762 58.245 86.6032 55.7781C86.5723 55.6409 86.5414 55.5038 86.5105 55.3667C86.4797 55.2295 86.1959 52.4122 85.6591 46.9147C85.1242 41.4345 84.8836 38.6131 84.9378 38.4506C84.9238 38.4869 84.9378 38.4506 84.9795 38.3418C85.0877 38.0168 85.3195 37.7942 85.6749 37.6738ZM94.6213 44.6957L94.9307 44.641L94.9567 44.6386C95.1662 44.6368 95.3169 44.6578 95.4087 44.7018C95.8085 44.8574 96.0608 45.1141 96.1657 45.4718C96.2071 45.5381 96.2651 45.9527 96.3396 46.7157L96.4462 47.8083L97.6158 47.7003L98.8114 47.5899L99.0034 47.6771C99.547 47.8719 99.8285 48.2483 99.848 48.8064C99.8469 49.3316 99.613 49.7119 99.1464 49.9474L98.9956 50.0139L97.8285 50.1479L96.6849 50.2536L96.7992 51.4242C96.872 52.1699 96.8884 52.6059 96.8482 52.7321C96.7084 53.2699 96.3526 53.5652 95.7808 53.6181C95.2091 53.6709 94.8025 53.4459 94.5611 52.9433C94.4972 52.8267 94.4289 52.3955 94.3561 51.6498L94.2418 50.4792L93.0982 50.5848L91.9521 50.6645L91.7651 50.6292C91.2613 50.4832 90.958 50.1525 90.8553 49.637C90.7664 49.0853 90.97 48.664 91.4661 48.3732L91.6639 48.2499L92.8335 48.1419L94.0031 48.0339L93.8964 46.9414C93.8135 46.0916 93.8146 45.5665 93.8999 45.3661C94.0601 45.0364 94.3005 44.8129 94.6213 44.6957Z" fill="white"/>
<path d="M67.8192 57.3409L69.3014 59.2405C70.6982 61.409 71.6181 63.6897 72.0607 66.0825C72.4679 68.2357 72.4862 70.375 72.1157 72.5003C71.7184 74.9818 70.7988 77.31 69.3572 79.4849C67.3751 82.5142 64.7141 84.7341 61.3738 86.1444C61.1265 86.2521 60.8737 86.353 60.6155 86.4471C58.7782 87.1515 56.8644 87.5373 54.8742 87.6046C51.4377 87.7525 48.1906 86.9683 45.1329 85.2521C43.5387 84.312 42.1075 83.1864 40.8392 81.8753C40.2513 81.2498 39.6525 80.4991 39.0426 79.6233C39.0099 79.5824 38.9773 79.5415 38.9447 79.5005C37.5478 77.3319 36.6226 75.0445 36.169 72.6381C35.7618 70.4848 35.7435 68.3456 36.114 66.2203C36.525 63.7279 37.4513 61.3943 38.893 59.2194C40.8614 56.2009 43.5225 53.981 46.8763 52.5599C47.1236 52.4522 47.3764 52.3513 47.6346 52.2573C50.0781 51.3379 52.5546 50.9614 55.0643 51.1275C56.3939 51.2069 57.5877 51.3945 58.6457 51.6902C61.2021 52.3327 63.5088 53.4975 65.5659 55.1849C66.3522 55.8085 67.1034 56.5272 67.8192 57.3409ZM59.7942 63.0291L65.2348 58.6961L65.1531 58.5937C65.1205 58.5528 65.0252 58.4613 64.8673 58.3191C62.8835 56.4172 60.5916 55.1178 57.9916 54.4208C54.69 53.5684 51.4575 53.777 48.2938 55.0468C47.9568 55.1812 47.6253 55.3225 47.2991 55.4707C46.5272 55.8399 45.9851 56.1489 45.6727 56.3977L45.6115 56.4464L49.9724 61.9124L54.3332 67.3784L59.7942 63.0291ZM67.4765 61.6314C67.2641 61.3095 67.1484 61.1226 67.1294 61.0708L66.9987 60.9071L61.5581 65.2401L56.0972 69.5894L60.458 75.0554L64.8188 80.5214L64.88 80.4727C65.0702 80.3213 65.3499 80.0314 65.7193 79.6034C66.6672 78.5359 67.4723 77.3033 68.1344 75.9055C69.5182 72.9062 69.9067 69.7733 69.3001 66.5067C68.9695 64.7835 68.3617 63.1584 67.4765 61.6314ZM46.6716 73.4804L52.1326 69.1311L47.7718 63.6651L43.4108 58.1991L43.3497 58.2478C43.1595 58.3992 42.8798 58.689 42.5104 59.1172C41.5489 60.1954 40.7507 61.4226 40.1158 62.7987C38.7184 65.8089 38.3229 68.9472 38.9296 72.2139C39.2603 73.937 39.8681 75.5621 40.7532 77.0892C40.9765 77.4247 41.0922 77.6116 41.1004 77.6497L41.231 77.8134L46.6716 73.4804ZM62.557 82.3228L62.6181 82.2741L58.2573 76.8081L53.8965 71.3421L48.4355 75.6914L42.995 80.0244L43.1257 80.1882C43.9829 81.0678 44.987 81.8529 46.1377 82.5435C49.0758 84.3326 52.2481 85.0648 55.6546 84.74C57.4952 84.5686 59.2539 84.0719 60.9307 83.2498C61.7025 82.8807 62.2446 82.5716 62.557 82.3228ZM89.756 82.7487L91.5077 84.9025C91.7037 85.1482 91.8004 85.2832 91.7977 85.3077C91.8114 85.4084 91.6878 85.5738 91.427 85.8038C91.2776 85.9228 90.9515 86.1825 90.4489 86.5828C87.1696 89.1276 83.9552 91.4198 80.8059 93.4593C69.176 100.936 58.0249 104.572 47.353 104.367C47.1545 104.369 46.9574 104.358 46.7616 104.336C46.6419 104.297 46.435 104.038 46.141 103.558C46.1082 103.405 46.1611 103.318 46.2998 103.297C46.3134 103.286 46.6206 103.254 47.2214 103.199C50.3099 102.949 53.3749 102.405 56.4166 101.567C64.2342 99.4482 72.6494 95.1678 81.662 88.7264C82.1728 88.3642 82.685 87.9897 83.1985 87.6031C84.9347 86.3542 86.7877 84.9454 88.7575 83.3766C89.3279 82.9222 89.6608 82.7129 89.756 82.7487Z" fill="white"/>
</svg>
