<svg width="375" height="1013" viewBox="0 0 375 1013" fill="none" xmlns="http://www.w3.org/2000/svg">
<g opacity="0.15">
<path d="M551.961 711.374L538.456 726.564C526.758 737.382 513.889 745.787 499.85 751.78C473.224 763.16 445.766 765.552 417.476 758.953C416.085 758.677 414.751 758.335 413.474 757.927C397.942 753.541 383.672 746.755 370.664 737.571C366.08 734.527 360.569 729.864 354.131 723.583C353.582 722.873 353.107 722.345 352.708 721.999C337.163 705.257 326.466 686.547 320.618 665.869C312.71 637.349 314.247 609.218 325.231 581.476C328.092 574.408 331.534 567.609 335.556 561.082C339.02 555.469 343.229 549.802 348.183 544.083C353.136 538.363 358.143 533.388 363.204 529.159C387.087 509.111 414.605 498.851 445.755 498.382C461.33 498.147 476.347 500.573 490.808 505.659C502.563 509.566 513.899 515.437 524.814 523.272C529.397 526.316 534.908 530.979 541.347 537.261C541.896 537.97 542.371 538.499 542.77 538.845C558.315 555.587 569.078 574.355 575.06 595.148C582.95 623.419 581.461 651.359 570.593 678.969C566.474 689.372 561.176 698.985 554.699 707.809C554.025 708.855 553.113 710.044 551.961 711.374ZM521.257 708.504L532.343 696.107C533.495 694.777 534.408 693.588 535.081 692.542C543.808 680.313 549.699 666.788 552.753 651.967C553.965 646.264 554.61 641.35 554.689 637.226L554.728 635.163L507.817 638.503L461.106 642.014L464.273 688.783L467.639 735.723L469.674 735.392C472.997 734.781 477.708 733.509 483.807 731.577C498.016 726.197 510.499 718.507 521.257 708.504ZM455.778 570.312L459.317 617.053L506.227 613.715L552.965 610.575L552.353 607.249C551.421 602.946 550.182 598.728 548.639 594.594C543.67 580.969 536.166 568.522 526.128 557.254C521.135 551.993 515.416 547.032 508.97 542.374C491.928 530.856 473.763 524.535 454.472 523.411L452.412 523.371L455.778 570.312ZM436.112 737.032C437.734 737.04 439.366 737.175 441.005 737.433L443.067 737.472L439.701 690.531L436.162 643.79L389.423 646.929L342.512 650.268L342.846 652.304C346.699 671.252 355.534 688.347 369.35 703.59C374.343 708.851 380.062 713.811 386.508 718.469C402.105 728.968 418.639 735.155 436.112 737.032ZM387.461 622.168L434.371 618.829L431.005 571.888L427.839 525.12L424.515 525.731C407.567 529.433 392.508 536.871 379.339 548.043C375.218 551.458 371.084 555.558 366.937 560.347C362.79 565.135 359.263 569.88 356.357 574.58C349.969 584.645 345.368 596.145 342.553 609.076C341.509 615.391 340.92 620.238 340.789 623.618L340.749 625.68L387.461 622.168ZM428.5 853.527C427.092 856.498 424.868 858.529 421.827 859.619C419.532 860.656 417.174 860.824 414.754 860.122C412.847 859.634 409.101 856.967 403.514 852.123C397.813 847.412 379.534 831.675 348.676 804.914C307.044 768.809 285.639 750.362 284.46 749.573C271.949 740.352 257.684 736.25 241.666 737.266C225.532 738.414 211.417 744.224 199.321 754.696C193.915 759.325 189.307 764.645 185.497 770.658C176.858 784.13 173.118 798.936 174.275 815.08C175.549 831.091 181.634 844.638 192.532 855.719C193.481 856.775 214.771 875.356 256.402 911.46C298.034 947.565 319.217 966.401 319.953 967.972C319.67 967.493 319.82 967.856 320.407 969.063C320.823 969.657 321.093 970.824 321.219 972.563C321.646 978.524 319.01 982.642 313.311 984.92C311.015 985.957 308.657 986.125 306.237 985.424C304.331 984.936 300.518 982.211 294.798 977.251C289.097 972.54 270.685 956.688 239.561 929.696C197.397 893.13 175.842 874.32 174.893 873.264L170.197 867.793C155.059 849.774 148.115 828.613 149.366 804.309C150.035 789.283 154.135 775.136 161.665 761.87C164.899 756.522 168.763 751.254 173.255 746.067C177.748 740.879 182.352 736.37 187.067 732.54C198.89 723.46 211.746 717.49 225.636 714.629C251.049 708.951 274.426 713.154 295.768 727.237C296.948 728.027 298.127 728.816 299.306 729.606C300.486 730.396 322.157 749.073 364.32 785.639C406.35 822.09 427.734 841.1 428.47 842.671C428.319 842.307 428.47 842.671 428.923 843.761C430.396 846.902 430.254 850.157 428.5 853.527ZM314.416 864.644L312.541 867.21L312.368 867.41C310.853 868.89 309.608 869.791 308.633 870.11C304.635 871.767 301.01 871.65 297.756 869.761C296.993 869.565 293.686 866.93 287.834 861.855L279.454 854.587L271.678 863.566L263.729 872.744L261.722 873.449C256.404 875.825 251.732 875.034 247.707 871.077C244.061 867.217 243.121 862.791 244.883 857.797L245.521 856.254L253.097 847.102L260.7 838.323L251.722 830.537C246.003 825.577 242.85 822.494 242.265 821.287C239.542 816.364 240.081 811.707 243.882 807.317C247.684 802.928 252.214 801.732 257.471 803.729C258.748 804.137 262.246 806.822 267.965 811.782L276.943 819.568L284.546 810.789L292.349 802.182L293.957 801.132C298.646 798.677 303.158 798.979 307.494 802.041C311.981 805.466 313.427 809.981 311.833 815.586L311.249 817.875L303.473 826.854L295.697 835.832L304.076 843.099C310.594 848.751 314.239 852.611 315.011 854.678C316.137 858.217 315.939 861.539 314.416 864.644Z" fill="white"/>
<path d="M421.849 584.299L397.825 580.74C372.553 574.612 349.978 564.322 330.103 549.87C312.152 536.927 297.135 521.364 285.048 503.183C270.68 482.201 261.185 458.688 256.564 432.645C249.938 396.553 253.895 361.646 268.437 327.922C269.49 325.401 270.631 322.891 271.859 320.394C280.354 302.367 291.623 286.143 305.665 271.719C329.691 246.581 358.823 229.604 393.057 220.791C411.221 216.527 429.487 214.766 447.857 215.505C456.495 215.978 466.085 217.293 476.624 219.448C477.147 219.519 477.67 219.591 478.193 219.663C503.466 225.792 526.127 236.093 546.177 250.568C564.128 263.512 579.146 279.074 591.231 297.256C605.576 318.413 615.059 342.013 619.68 368.056C626.33 403.973 622.373 438.881 607.809 472.779C606.754 475.3 605.613 477.809 604.385 480.306C592.967 504.152 577.53 524.248 558.075 540.596C547.829 549.32 537.82 556.3 528.049 561.536C504.94 574.717 480.017 582.319 453.279 584.341C443.207 585.27 432.73 585.257 421.849 584.299ZM440.782 486.408L431.263 556.27L432.571 556.449C433.093 556.521 434.425 556.525 436.565 556.463C464.262 556.527 490.013 550.016 513.819 536.93C543.822 520.073 565.939 495.917 580.171 464.46C581.692 461.116 583.126 457.759 584.473 454.389C587.532 446.278 589.335 440.217 589.882 436.206L589.988 435.42L520.163 425.852L450.337 416.284L440.782 486.408ZM394.496 550.431C398.284 551.306 400.427 551.867 400.926 552.113L403.019 552.4L412.538 482.538L422.093 412.414L352.267 402.846L282.441 393.277L282.335 394.062C282.002 396.504 281.979 400.588 282.263 406.313C282.78 420.777 285.486 435.453 290.384 450.34C301.163 482.025 320.128 507.723 347.278 527.436C361.679 537.761 377.417 545.427 394.496 550.431ZM463.742 317.902L454.187 388.026L524.013 397.594L593.839 407.161L593.946 406.377C594.279 403.935 594.302 399.851 594.017 394.125C593.524 379.487 590.806 364.899 585.861 350.362C575.105 318.502 556.153 292.716 529.001 273.003C514.601 262.679 498.863 255.013 481.784 250.007C477.822 249.109 475.678 248.548 475.353 248.327L473.261 248.04L463.742 317.902ZM286.399 364.234L286.292 365.019L356.118 374.586L425.943 384.155L435.498 314.031L445.017 244.17L442.925 243.883C430.555 243.432 417.772 244.701 404.577 247.69C370.707 255.132 342.483 271.966 319.906 298.192C307.679 312.331 298.312 328.284 291.807 346.05C288.748 354.16 286.946 360.222 286.399 364.234ZM85.1278 551.485L57.3709 547.948C54.2325 547.519 52.5881 547.204 52.4376 547.006C51.6368 546.363 51.3871 544.285 51.6878 540.773C51.9496 538.854 52.5206 534.667 53.3998 528.213C59.6035 486.595 67.0911 447.284 75.8623 410.282C108.634 274.039 164.64 169.322 243.877 96.1314C245.311 94.7282 246.82 93.425 248.406 92.2202C249.547 91.666 252.86 92.1202 258.343 93.5822C259.642 94.4711 259.861 95.4782 258.997 96.6041C258.974 96.7786 256.961 99.1684 252.959 103.773C232.181 127.225 213.618 152.667 197.27 180.102C155.018 250.364 123.444 340.66 102.551 450.988C101.346 457.22 100.218 463.551 99.1633 469.982C95.1943 491.294 91.4859 514.597 88.0395 539.89C87.0415 547.216 86.0708 551.081 85.1278 551.485Z" fill="white"/>
</g>
</svg>
