<svg width="32" height="32" viewBox="0 0 32 32" fill="none" xmlns="http://www.w3.org/2000/svg">
<path d="M7.98275 23.0206H10.9333V15.8551L6.71826 12.6938V21.7561C6.71826 22.4558 7.28515 23.0206 7.98275 23.0206Z" fill="white"/>
<path d="M21.0493 23.0206H23.9998C24.6995 23.0206 25.2643 22.4537 25.2643 21.7561V12.6938L21.0493 15.8551" fill="white"/>
<path d="M21.0493 10.3758V15.8553L25.2643 12.694V11.008C25.2643 9.44424 23.4793 8.55276 22.2295 9.49061" fill="white"/>
<path d="M10.9336 15.8552V10.3757L15.9916 14.1692L21.0496 10.3757V15.8552L15.9916 19.6487" fill="white"/>
<path d="M6.71826 11.008V12.694L10.9333 15.8553V10.3758L9.75304 9.49061C8.50118 8.55276 6.71826 9.44424 6.71826 11.008Z" fill="white"/>
</svg>
