<svg width="206" height="146" viewBox="0 0 206 146" fill="none" xmlns="http://www.w3.org/2000/svg">
<rect width="206" height="146" rx="26" fill="white"/>
<g clip-path="url(#clip0_2054_25)">
<mask id="mask0_2054_25" style="mask-type:luminance" maskUnits="userSpaceOnUse" x="25" y="43" width="155" height="60">
<path d="M180 43H25V103H180V43Z" fill="white"/>
</mask>
<g mask="url(#mask0_2054_25)">
<path d="M25.1048 73.161C25.0477 73.1038 25.0254 73.0354 25.0381 72.9559C25.0556 72.8319 25.1326 72.7024 25.2691 72.5673C35.1278 62.7603 44.9627 52.9398 54.7738 43.1057C54.8097 43.0695 54.8587 43.0491 54.91 43.0491C54.9613 43.0491 55.0108 43.0695 55.0476 43.1057L84.6571 72.7604C84.8063 72.9098 84.8063 73.0585 84.6571 73.2063L54.9952 102.913C54.9333 102.977 54.8706 102.977 54.8071 102.913L45.7405 93.8282C45.7282 93.816 45.7185 93.8015 45.7119 93.7855C45.7053 93.7696 45.7019 93.7525 45.7019 93.7352C45.7019 93.7179 45.7053 93.7008 45.7119 93.6848C45.7185 93.6689 45.7282 93.6544 45.7405 93.6422L63.1404 76.2181C63.1885 76.169 63.2498 76.1351 63.317 76.1203C63.3842 76.1054 63.4544 76.1104 63.519 76.1346C66.7571 77.334 68.7714 72.4385 65.5881 70.9362C63.4428 69.9228 61.2047 71.933 61.6952 74.1602C61.7142 74.2465 61.7114 74.3363 61.6868 74.4213C61.6623 74.5063 61.6169 74.5837 61.5547 74.6466L44.2548 91.9682C44.1373 92.0874 44.0191 92.0874 43.9 91.9682L25.1048 73.161ZM65.64 53.7143L64.0788 52.1508L63.7166 52.5201L45.7667 70.4283C45.7095 70.4871 45.6405 70.5078 45.5595 70.4903C44.1119 70.1882 43.0405 70.5642 42.3453 71.6182C40.3881 74.5775 44.5643 77.6655 46.8143 74.928C47.4048 74.2094 47.5722 73.3168 47.3167 72.2501C47.2976 72.1658 47.3183 72.0935 47.3786 72.0331L65.64 53.7143Z" fill="#0E002B"/>
<path d="M92.4736 70.2303C91.8022 67.2472 93.1688 64.3619 96.1283 63.3985C99.3902 62.335 102.938 63.2411 105.728 65.1393C105.777 65.1726 105.811 65.2239 105.822 65.282C105.833 65.34 105.821 65.4002 105.788 65.4493L103.902 68.2249C103.867 68.2763 103.813 68.3119 103.753 68.324C103.692 68.336 103.629 68.3236 103.578 68.2893C101.9 67.1685 98.2212 65.4564 96.626 67.4738C95.4498 68.9594 97.5783 69.999 98.7355 70.3233C101.662 71.146 105.959 71.8638 106.374 75.6767C106.888 80.434 103.062 82.6254 98.876 82.3416C96.1363 82.1556 93.7299 81.1835 91.6569 79.4253C91.5918 79.3712 91.5863 79.3116 91.6403 79.2465L93.8593 76.559C93.9164 76.4923 93.9807 76.4843 94.0522 76.5352C96.0783 77.9659 97.5212 78.7743 100.178 78.6598C102.566 78.5573 103.366 76.1274 100.833 75.1784C98.0641 74.1411 93.2569 73.7166 92.4736 70.2303Z" fill="#0E002B"/>
<path d="M131.214 63.1267L134.914 63.0981C134.932 63.098 134.949 63.1032 134.964 63.113C134.979 63.1227 134.991 63.1366 134.998 63.1529L142.997 81.9577C143.003 81.9715 143.006 81.9866 143.004 82.0016C143.003 82.0165 142.998 82.0309 142.99 82.0434C142.982 82.056 142.97 82.0663 142.957 82.0734C142.944 82.0805 142.929 82.0842 142.914 82.0841L138.783 82.0698C138.765 82.0697 138.748 82.0641 138.733 82.0539C138.718 82.0437 138.707 82.0293 138.7 82.0126L137.048 77.8443C137.041 77.8272 137.029 77.8125 137.014 77.8023C136.998 77.7921 136.98 77.7868 136.962 77.7871L129.074 77.78C129.055 77.7796 129.037 77.7849 129.022 77.7952C129.007 77.8054 128.995 77.82 128.988 77.8372L127.305 82.0102C127.298 82.027 127.287 82.0414 127.272 82.0516C127.257 82.0617 127.239 82.0673 127.221 82.0674L123.223 82.0889C123.208 82.0889 123.194 82.0852 123.181 82.0781C123.167 82.071 123.156 82.0607 123.148 82.0482C123.14 82.0357 123.134 82.0213 123.133 82.0063C123.132 81.9914 123.134 81.9763 123.14 81.9625L131.131 63.1815C131.138 63.1652 131.149 63.1513 131.164 63.1416C131.179 63.1318 131.196 63.1267 131.214 63.1267ZM130.5 74.0934C130.495 74.1048 130.493 74.1173 130.495 74.1296C130.496 74.1419 130.5 74.1537 130.507 74.164C130.514 74.1743 130.523 74.1829 130.534 74.1888C130.545 74.1948 130.557 74.1981 130.569 74.1983L135.448 74.2245C135.46 74.2247 135.472 74.2217 135.484 74.2159C135.495 74.2101 135.504 74.2016 135.511 74.1912C135.518 74.1808 135.523 74.1689 135.524 74.1564C135.525 74.1439 135.524 74.1313 135.519 74.1196L133.109 68.1367C133.104 68.1229 133.094 68.111 133.081 68.1027C133.069 68.0944 133.054 68.09 133.039 68.09C133.024 68.09 133.01 68.0944 132.997 68.1027C132.985 68.111 132.975 68.1229 132.969 68.1367L130.5 74.0934Z" fill="#0E002B"/>
<path d="M113.938 66.9324H108.621C108.577 66.9324 108.534 66.9146 108.502 66.8829C108.47 66.8511 108.452 66.808 108.452 66.7631V63.4653C108.452 63.443 108.457 63.421 108.465 63.4005C108.474 63.3799 108.486 63.3613 108.502 63.3455C108.518 63.3298 108.536 63.3174 108.557 63.3088C108.577 63.3003 108.599 63.296 108.621 63.296H123.874C123.918 63.296 123.961 63.3135 123.992 63.3447C124.024 63.3759 124.042 63.4184 124.043 63.4629L124.064 66.7751C124.065 66.7975 124.06 66.8198 124.052 66.8406C124.044 66.8614 124.031 66.8804 124.016 66.8963C124 66.9123 123.981 66.925 123.96 66.9336C123.94 66.9423 123.918 66.9468 123.895 66.9468L118.383 66.9253C118.338 66.9253 118.295 66.9431 118.264 66.9749C118.232 67.0066 118.214 67.0497 118.214 67.0946V81.9052C118.214 81.9501 118.196 81.9932 118.165 82.025C118.133 82.0567 118.09 82.0745 118.045 82.0745H114.279C114.234 82.0745 114.191 82.0567 114.159 82.025C114.127 81.9932 114.109 81.9501 114.109 81.9052L114.107 67.1018C114.107 67.0569 114.089 67.0138 114.058 66.982C114.026 66.9503 113.983 66.9324 113.938 66.9324Z" fill="#0E002B"/>
<path d="M150.536 75.9343C150.267 75.9343 150.132 76.0686 150.131 76.3372L150.098 81.9362C150.098 81.9729 150.083 82.0081 150.057 82.034C150.031 82.06 149.996 82.0746 149.959 82.0746H146.19C146.071 82.0746 146.012 82.0149 146.012 81.8957V63.4176C146.012 63.386 146.024 63.3556 146.047 63.3333C146.069 63.3109 146.099 63.2984 146.131 63.2984C149.288 63.2936 152.463 63.2944 155.655 63.3007C162.524 63.315 164.05 72.8081 157.978 75.1926C157.94 75.2077 157.906 75.2312 157.878 75.2614C157.85 75.2917 157.829 75.3278 157.817 75.3672C157.805 75.4067 157.801 75.4483 157.808 75.4891C157.814 75.5299 157.829 75.5687 157.852 75.6028C159.307 77.7322 161.04 79.8593 162.148 81.9959C162.181 82.0579 162.162 82.0889 162.09 82.0889L157.769 82.0674C157.677 82.0668 157.587 82.0439 157.506 82.0007C157.425 81.9575 157.356 81.8952 157.305 81.8194L153.428 76.0511C153.376 75.9732 153.303 75.9343 153.209 75.9343H150.536ZM150.121 67.1018V72.2382C150.121 72.285 150.14 72.3298 150.173 72.3629C150.206 72.396 150.251 72.4146 150.298 72.4146H154.636C155.026 72.4146 155.413 72.3442 155.775 72.2073C156.136 72.0705 156.464 71.8699 156.74 71.617C157.016 71.3641 157.236 71.0639 157.385 70.7335C157.535 70.4031 157.612 70.049 157.612 69.6914V69.6485C157.612 68.9263 157.298 68.2336 156.74 67.7229C156.182 67.2122 155.425 66.9253 154.636 66.9253H150.298C150.251 66.9253 150.206 66.9439 150.173 66.977C150.14 67.0101 150.121 67.055 150.121 67.1018Z" fill="#0E002B"/>
<path d="M169.864 66.9324H164.419C164.383 66.9324 164.35 66.9184 164.325 66.8933C164.3 66.8683 164.286 66.8343 164.286 66.7989V63.4295C164.286 63.3941 164.3 63.3601 164.325 63.3351C164.35 63.31 164.383 63.296 164.419 63.296H179.807C179.842 63.296 179.876 63.31 179.901 63.3351C179.926 63.3601 179.94 63.3941 179.94 63.4295V66.7989C179.94 66.8343 179.926 66.8683 179.901 66.8933C179.876 66.9184 179.842 66.9324 179.807 66.9324H174.181C174.145 66.9324 174.111 66.9465 174.086 66.9716C174.061 66.9966 174.047 67.0306 174.047 67.066V81.941C174.047 81.9764 174.033 82.0104 174.008 82.0354C173.983 82.0605 173.949 82.0745 173.914 82.0745H170.126C170.091 82.0745 170.057 82.0605 170.032 82.0354C170.007 82.0104 169.993 81.9764 169.993 81.941L169.997 67.066C169.997 67.0484 169.994 67.0311 169.987 67.0149C169.981 66.9987 169.971 66.984 169.958 66.9716C169.946 66.9592 169.931 66.9493 169.915 66.9426C169.899 66.9359 169.882 66.9324 169.864 66.9324Z" fill="#0E002B"/>
<path d="M169.748 99.9136C167.7 98.2611 167.067 95.4139 167.757 92.9244C169.131 87.9526 175.071 87.0321 178.817 89.865C178.868 89.9043 178.911 89.9539 178.942 90.0108C178.974 90.0676 178.993 90.1304 178.998 90.1951C179.004 90.2598 178.996 90.325 178.975 90.3864C178.954 90.4478 178.92 90.5042 178.876 90.5517L177.462 92.085C177.438 92.1114 177.405 92.128 177.369 92.1315C177.333 92.135 177.298 92.1253 177.269 92.1041C176.353 91.4428 175.678 91.0581 175.243 90.95C170.574 89.7911 168.493 96.1364 172.345 98.4423C174.095 99.4892 175.79 98.7261 177.374 97.5123C177.455 97.4503 177.532 97.4559 177.605 97.529L179 98.9312C179.032 98.9633 179.058 99.0014 179.075 99.0435C179.092 99.0855 179.101 99.1306 179.101 99.1761C179.101 99.2216 179.091 99.2665 179.074 99.3084C179.056 99.3503 179.03 99.3882 178.997 99.42C176.426 101.948 172.45 102.095 169.748 99.9136Z" fill="#0E002B"/>
<path d="M146.781 90.9572H143.121C143.072 90.9572 143.024 90.9376 142.989 90.9028C142.954 90.868 142.934 90.8207 142.933 90.7712L142.907 88.6274C142.907 88.6023 142.911 88.5773 142.921 88.554C142.93 88.5308 142.944 88.5096 142.962 88.4918C142.98 88.474 143.001 88.46 143.024 88.4505C143.047 88.4411 143.072 88.4363 143.097 88.4367L153.407 88.5201C153.432 88.5204 153.457 88.5258 153.48 88.5358C153.503 88.5459 153.524 88.5604 153.541 88.5787C153.558 88.5969 153.572 88.6184 153.581 88.6419C153.59 88.6655 153.594 88.6905 153.593 88.7157L153.514 90.7759C153.512 90.8246 153.492 90.8707 153.457 90.9045C153.421 90.9383 153.375 90.9572 153.326 90.9572H149.814C149.789 90.9572 149.765 90.962 149.742 90.9715C149.719 90.981 149.699 90.9948 149.681 91.0123C149.664 91.0298 149.65 91.0506 149.64 91.0735C149.631 91.0963 149.626 91.1208 149.626 91.1455L149.686 101.061C149.686 101.086 149.681 101.111 149.672 101.134C149.662 101.157 149.648 101.179 149.63 101.196C149.613 101.214 149.592 101.228 149.568 101.237C149.545 101.247 149.52 101.252 149.495 101.251L147.14 101.244C147.09 101.244 147.043 101.224 147.007 101.189C146.972 101.154 146.952 101.106 146.952 101.056L146.969 91.1455C146.969 91.0956 146.949 91.0477 146.914 91.0123C146.879 90.977 146.831 90.9572 146.781 90.9572Z" fill="#0E002B"/>
<path d="M158.676 98.8263H165.307C165.35 98.8263 165.392 98.8433 165.422 98.8736C165.453 98.904 165.471 98.9452 165.471 98.9884L165.49 101.099C165.491 101.121 165.487 101.142 165.479 101.163C165.47 101.183 165.458 101.201 165.443 101.217C165.428 101.232 165.41 101.245 165.39 101.253C165.369 101.261 165.348 101.266 165.326 101.266L155.998 101.271C155.954 101.271 155.912 101.253 155.881 101.222C155.851 101.191 155.833 101.15 155.833 101.106L155.819 88.6322C155.819 88.5886 155.836 88.5467 155.867 88.5158C155.898 88.485 155.94 88.4677 155.983 88.4677L165.312 88.501C165.333 88.501 165.355 88.5053 165.375 88.5136C165.395 88.5218 165.413 88.5339 165.428 88.5492C165.443 88.5645 165.455 88.5826 165.464 88.6026C165.472 88.6226 165.476 88.644 165.476 88.6656V90.7926C165.476 90.8142 165.472 90.8356 165.464 90.8556C165.455 90.8756 165.443 90.8937 165.428 90.909C165.413 90.9242 165.395 90.9364 165.375 90.9446C165.355 90.9529 165.333 90.9572 165.312 90.9572H158.676C158.633 90.9572 158.591 90.9745 158.56 91.0053C158.529 91.0362 158.512 91.0781 158.512 91.1217V93.2917C158.512 93.3353 158.529 93.3771 158.56 93.408C158.591 93.4389 158.633 93.4562 158.676 93.4562L164.478 93.4705C164.522 93.4705 164.564 93.4878 164.595 93.5187C164.625 93.5496 164.643 93.5914 164.643 93.635V95.9552C164.643 95.977 164.638 95.9986 164.63 96.0188C164.622 96.0389 164.609 96.0571 164.594 96.0724C164.578 96.0877 164.56 96.0998 164.54 96.1079C164.519 96.1161 164.498 96.1201 164.476 96.1198L158.678 96.0697C158.657 96.0694 158.635 96.0734 158.615 96.0815C158.595 96.0897 158.576 96.1017 158.561 96.117C158.545 96.1323 158.533 96.1506 158.525 96.1707C158.516 96.1908 158.512 96.2124 158.512 96.2342V98.6617C158.512 98.7054 158.529 98.7472 158.56 98.7781C158.591 98.8089 158.633 98.8263 158.676 98.8263Z" fill="#0E002B"/>
</g>
</g>
<defs>
<clipPath id="clip0_2054_25">
<rect width="155" height="60" fill="white" transform="translate(25 43)"/>
</clipPath>
</defs>
</svg>
