<svg width="32" height="20" viewBox="0 0 32 20" fill="none" xmlns="http://www.w3.org/2000/svg">
<g clip-path="url(#clip0_2016_503)">
<path d="M16 0.3396C11.7333 0.3396 9.06667 2.48077 8 6.76312C9.6 4.62195 11.4667 3.81901 13.6 4.3543C14.8172 4.65972 15.6872 5.54598 16.6501 6.52706C18.2188 8.12521 20.0344 9.97488 24 9.97488C28.2667 9.97488 30.9333 7.83371 32 3.55136C30.4 5.69254 28.5333 6.49548 26.4 5.96018C25.1828 5.65477 24.3128 4.7685 23.3499 3.78743C21.7812 2.18928 19.9656 0.3396 16 0.3396ZM8 9.97488C3.73333 9.97488 1.06667 12.1161 0 16.3984C1.6 14.2572 3.46667 13.4543 5.6 13.9896C6.81718 14.295 7.68717 15.1813 8.65013 16.1623C10.2188 17.7605 12.0344 19.6102 16 19.6102C20.2667 19.6102 22.9333 17.469 24 13.1866C22.4 15.3278 20.5333 16.1308 18.4 15.5955C17.1828 15.2901 16.3128 14.4038 15.3499 13.4227C13.7812 11.8246 11.9656 9.97488 8 9.97488Z" fill="url(#paint0_linear_2016_503)"/>
</g>
<defs>
<linearGradient id="paint0_linear_2016_503" x1="-227.556" y1="949.993" x2="7619.52" y2="3661.76" gradientUnits="userSpaceOnUse">
<stop stop-color="#2298BD"/>
<stop offset="1" stop-color="#0ED7B5"/>
</linearGradient>
<clipPath id="clip0_2016_503">
<rect width="32" height="19.3208" fill="white" transform="translate(0 0.3396)"/>
</clipPath>
</defs>
</svg>
