<svg width="28" height="28" viewBox="0 0 28 28" fill="none" xmlns="http://www.w3.org/2000/svg">
<g clip-path="url(#clip0_2016_505)">
<path d="M0 14V28H28V0H0V14ZM22.5645 12.8847C23.2762 13.062 23.8175 13.3782 24.3157 13.8938C24.5735 14.1692 24.9562 14.6708 24.9865 14.7922C24.9958 14.8272 23.7778 15.6438 23.0405 16.1023C23.0137 16.1198 22.9063 16.0043 22.7873 15.827C22.4257 15.302 22.0488 15.0757 21.4713 15.036C20.622 14.9777 20.076 15.4222 20.0807 16.1642C20.0729 16.3466 20.114 16.5279 20.1997 16.6892C20.3863 17.0753 20.734 17.3075 21.8213 17.7777C23.8268 18.641 24.6843 19.2092 25.2175 20.0177C25.8125 20.9195 25.9467 22.3603 25.5418 23.4313C25.0985 24.5957 23.996 25.3867 22.4443 25.648C21.9648 25.7332 20.8273 25.7203 20.3117 25.627C19.187 25.4263 18.1207 24.871 17.4627 24.1418C17.2048 23.8583 16.702 23.1152 16.7335 23.0627C16.8144 23.0008 16.9002 22.9458 16.9902 22.8982C17.1162 22.827 17.5863 22.5552 18.0308 22.2973L18.8358 21.8307L19.005 22.0803C19.2407 22.4397 19.7552 22.9332 20.0667 23.0977C20.9603 23.569 22.1865 23.5025 22.7908 22.96C22.9124 22.8576 23.0086 22.7285 23.0719 22.5828C23.1353 22.4371 23.164 22.2787 23.156 22.12C23.156 21.7957 23.1152 21.6533 22.946 21.4083C22.729 21.098 22.2845 20.8367 21.0222 20.2883C19.5778 19.6665 18.956 19.2803 18.3867 18.6667C18.0313 18.2617 17.7689 17.7838 17.6178 17.2667C17.5117 16.8712 17.4848 15.8795 17.5688 15.4805C17.8663 14.084 18.9198 13.1122 20.44 12.8228C20.9335 12.7295 22.0803 12.7645 22.5645 12.8847ZM15.9915 14.0537L16.0008 15.2005H12.355V25.5558H9.77667V15.2005H6.13433V14.0758C6.13433 13.4528 6.14717 12.9325 6.16467 12.9208C6.17867 12.9022 8.3965 12.8928 11.0845 12.8975L15.9787 12.9115L15.9915 14.0537Z" fill="white"/>
</g>
<defs>
<clipPath id="clip0_2016_505">
<rect width="28" height="28" rx="2" fill="white"/>
</clipPath>
</defs>
</svg>
